<mxfile host="app.diagrams.net" modified="2024-05-11T06:02:15.464Z" agent="Mozilla/5.0 (Windows NT 10.0; Win64; x64) AppleWebKit/537.36 (KHTML, like Gecko) Chrome/124.0.0.0 Safari/537.36" etag="qel8IR4E8uVw3tzfWeoC" version="24.4.0" type="github">
  <diagram name="第 1 页" id="i5ujcEr5XKjk4MZj27tD">
    <mxGraphModel dx="989" dy="521" grid="1" gridSize="10" guides="1" tooltips="1" connect="1" arrows="1" fold="1" page="1" pageScale="1" pageWidth="827" pageHeight="1169" math="0" shadow="0">
      <root>
        <mxCell id="0" />
        <mxCell id="1" parent="0" />
        <mxCell id="TXkIHzMNEkKC8afPAxhp-1" value="个人撤回" style="rounded=1;whiteSpace=wrap;html=1;fontSize=12;fontColor=#000000;" vertex="1" parent="1">
          <mxGeometry x="20" y="210" width="80" height="40" as="geometry" />
        </mxCell>
        <mxCell id="TXkIHzMNEkKC8afPAxhp-5" value="否" style="edgeStyle=orthogonalEdgeStyle;rounded=0;orthogonalLoop=1;jettySize=auto;html=1;fontSize=12;fontColor=#000000;" edge="1" parent="1" source="TXkIHzMNEkKC8afPAxhp-2">
          <mxGeometry relative="1" as="geometry">
            <mxPoint x="180" y="320.0000000000001" as="targetPoint" />
          </mxGeometry>
        </mxCell>
        <mxCell id="TXkIHzMNEkKC8afPAxhp-10" style="edgeStyle=orthogonalEdgeStyle;rounded=0;orthogonalLoop=1;jettySize=auto;html=1;entryX=0;entryY=0.5;entryDx=0;entryDy=0;" edge="1" parent="1" source="TXkIHzMNEkKC8afPAxhp-2" target="TXkIHzMNEkKC8afPAxhp-12">
          <mxGeometry relative="1" as="geometry">
            <mxPoint x="310" y="225" as="targetPoint" />
          </mxGeometry>
        </mxCell>
        <mxCell id="TXkIHzMNEkKC8afPAxhp-11" value="是" style="edgeLabel;html=1;align=center;verticalAlign=middle;resizable=0;points=[];" vertex="1" connectable="0" parent="TXkIHzMNEkKC8afPAxhp-10">
          <mxGeometry x="-0.18" y="1" relative="1" as="geometry">
            <mxPoint as="offset" />
          </mxGeometry>
        </mxCell>
        <mxCell id="TXkIHzMNEkKC8afPAxhp-2" value="是否任务创建人" style="rhombus;whiteSpace=wrap;html=1;fontSize=12;fontColor=#000000;" vertex="1" parent="1">
          <mxGeometry x="150" y="190" width="60" height="80" as="geometry" />
        </mxCell>
        <mxCell id="TXkIHzMNEkKC8afPAxhp-3" style="edgeStyle=orthogonalEdgeStyle;rounded=0;orthogonalLoop=1;jettySize=auto;html=1;exitX=1;exitY=0.5;exitDx=0;exitDy=0;entryX=0;entryY=0.5;entryDx=0;entryDy=0;fontSize=12;fontColor=#000000;" edge="1" parent="1" source="TXkIHzMNEkKC8afPAxhp-1" target="TXkIHzMNEkKC8afPAxhp-2">
          <mxGeometry relative="1" as="geometry" />
        </mxCell>
        <mxCell id="TXkIHzMNEkKC8afPAxhp-8" value="&lt;div style=&quot;background-color: rgb(255, 255, 255); font-size: 12px;&quot;&gt;&lt;pre style=&quot;font-family: 宋体, monospace; font-size: 12px;&quot;&gt;&lt;span style=&quot;font-weight: bold; font-size: 12px;&quot;&gt;不是本人创建的&lt;/span&gt;&lt;/pre&gt;&lt;pre style=&quot;font-family: 宋体, monospace; font-size: 12px;&quot;&gt;&lt;span style=&quot;font-weight: bold; font-size: 12px;&quot;&gt;个人任务，无法撤回&lt;/span&gt;&lt;/pre&gt;&lt;/div&gt;" style="rounded=1;whiteSpace=wrap;html=1;fontSize=12;fontColor=#000000;" vertex="1" parent="1">
          <mxGeometry x="120" y="330" width="120" height="60" as="geometry" />
        </mxCell>
        <mxCell id="TXkIHzMNEkKC8afPAxhp-18" style="edgeStyle=orthogonalEdgeStyle;rounded=0;orthogonalLoop=1;jettySize=auto;html=1;entryX=0;entryY=0.5;entryDx=0;entryDy=0;" edge="1" parent="1" source="TXkIHzMNEkKC8afPAxhp-12" target="TXkIHzMNEkKC8afPAxhp-13">
          <mxGeometry relative="1" as="geometry" />
        </mxCell>
        <mxCell id="TXkIHzMNEkKC8afPAxhp-24" value="否" style="edgeLabel;html=1;align=center;verticalAlign=middle;resizable=0;points=[];" vertex="1" connectable="0" parent="TXkIHzMNEkKC8afPAxhp-18">
          <mxGeometry x="-0.231" relative="1" as="geometry">
            <mxPoint as="offset" />
          </mxGeometry>
        </mxCell>
        <mxCell id="TXkIHzMNEkKC8afPAxhp-25" style="edgeStyle=orthogonalEdgeStyle;rounded=0;orthogonalLoop=1;jettySize=auto;html=1;entryX=0.5;entryY=0;entryDx=0;entryDy=0;" edge="1" parent="1" source="TXkIHzMNEkKC8afPAxhp-12" target="TXkIHzMNEkKC8afPAxhp-26">
          <mxGeometry relative="1" as="geometry">
            <mxPoint x="390" y="340.0000000000001" as="targetPoint" />
          </mxGeometry>
        </mxCell>
        <mxCell id="TXkIHzMNEkKC8afPAxhp-12" value="任务来源于部门" style="rhombus;whiteSpace=wrap;html=1;" vertex="1" parent="1">
          <mxGeometry x="350" y="190" width="80" height="80" as="geometry" />
        </mxCell>
        <mxCell id="TXkIHzMNEkKC8afPAxhp-19" style="edgeStyle=orthogonalEdgeStyle;rounded=0;orthogonalLoop=1;jettySize=auto;html=1;entryX=0;entryY=0.5;entryDx=0;entryDy=0;" edge="1" parent="1" source="TXkIHzMNEkKC8afPAxhp-13" target="TXkIHzMNEkKC8afPAxhp-15">
          <mxGeometry relative="1" as="geometry" />
        </mxCell>
        <mxCell id="TXkIHzMNEkKC8afPAxhp-20" style="edgeStyle=orthogonalEdgeStyle;rounded=0;orthogonalLoop=1;jettySize=auto;html=1;entryX=0;entryY=0.5;entryDx=0;entryDy=0;exitX=0;exitY=0.5;exitDx=0;exitDy=0;" edge="1" parent="1" source="TXkIHzMNEkKC8afPAxhp-14" target="TXkIHzMNEkKC8afPAxhp-16">
          <mxGeometry relative="1" as="geometry" />
        </mxCell>
        <mxCell id="TXkIHzMNEkKC8afPAxhp-22" style="edgeStyle=orthogonalEdgeStyle;rounded=0;orthogonalLoop=1;jettySize=auto;html=1;entryX=0;entryY=0.5;entryDx=0;entryDy=0;" edge="1" parent="1" source="TXkIHzMNEkKC8afPAxhp-13" target="TXkIHzMNEkKC8afPAxhp-17">
          <mxGeometry relative="1" as="geometry">
            <Array as="points">
              <mxPoint x="520" y="410" />
            </Array>
          </mxGeometry>
        </mxCell>
        <mxCell id="TXkIHzMNEkKC8afPAxhp-23" value="个人任务" style="edgeLabel;html=1;align=center;verticalAlign=middle;resizable=0;points=[];" vertex="1" connectable="0" parent="TXkIHzMNEkKC8afPAxhp-22">
          <mxGeometry x="-0.324" y="-1" relative="1" as="geometry">
            <mxPoint as="offset" />
          </mxGeometry>
        </mxCell>
        <mxCell id="TXkIHzMNEkKC8afPAxhp-13" value="个人任务执行人" style="rounded=0;whiteSpace=wrap;html=1;" vertex="1" parent="1">
          <mxGeometry x="490" y="200" width="60" height="60" as="geometry" />
        </mxCell>
        <mxCell id="TXkIHzMNEkKC8afPAxhp-14" value="清空原已办、待办" style="rounded=0;whiteSpace=wrap;html=1;" vertex="1" parent="1">
          <mxGeometry x="620" y="110" width="60" height="60" as="geometry" />
        </mxCell>
        <mxCell id="TXkIHzMNEkKC8afPAxhp-15" value="清空通知" style="rounded=0;whiteSpace=wrap;html=1;" vertex="1" parent="1">
          <mxGeometry x="620" y="200" width="60" height="60" as="geometry" />
        </mxCell>
        <mxCell id="TXkIHzMNEkKC8afPAxhp-16" value="收到撤回通知" style="rounded=0;whiteSpace=wrap;html=1;" vertex="1" parent="1">
          <mxGeometry x="620" y="290" width="60" height="60" as="geometry" />
        </mxCell>
        <mxCell id="TXkIHzMNEkKC8afPAxhp-17" value="个人任务状态为撤回" style="rounded=0;whiteSpace=wrap;html=1;" vertex="1" parent="1">
          <mxGeometry x="620" y="380" width="60" height="60" as="geometry" />
        </mxCell>
        <mxCell id="TXkIHzMNEkKC8afPAxhp-28" style="edgeStyle=orthogonalEdgeStyle;rounded=0;orthogonalLoop=1;jettySize=auto;html=1;entryX=1;entryY=0.5;entryDx=0;entryDy=0;" edge="1" parent="1" source="TXkIHzMNEkKC8afPAxhp-26" target="TXkIHzMNEkKC8afPAxhp-27">
          <mxGeometry relative="1" as="geometry" />
        </mxCell>
        <mxCell id="TXkIHzMNEkKC8afPAxhp-26" value="个人任务执行人" style="rounded=1;whiteSpace=wrap;html=1;" vertex="1" parent="1">
          <mxGeometry x="345" y="410" width="90" height="30" as="geometry" />
        </mxCell>
        <mxCell id="TXkIHzMNEkKC8afPAxhp-27" value="待办（部门任务下发的待办）" style="rounded=1;whiteSpace=wrap;html=1;" vertex="1" parent="1">
          <mxGeometry x="120" y="410" width="120" height="30" as="geometry" />
        </mxCell>
      </root>
    </mxGraphModel>
  </diagram>
</mxfile>
